# xmcd
#
# Track frame offsets:
#	182
#	15935
#	27535
#	38882
#	48700
#	56122
#	71077
#	84900
#	97955
#	110017
#	121952
#	132247
#	140640
#	150607
#	159987
#	168495
#	181197
#
# Disc length: 2532
#
# Revision: 2
# Processed by: cddbd v1.5.1PL0 Copyright (c) Steve Scherf et al.
# Submitted via: ExactAudioCopy v0.90b4
# Normalized: r0:DSETVAR1,TDELIM( - ),TSWAP
#
DISCID=e309e211
DTITLE=Various Artist - The Country Christmas Collection
DYEAR=1991
DGENRE=Country
TTITLE0=The Statler Brothers - An Old Fashioned Christmas
TTITLE1=Bob Wills and His Texas Playboys - Santa's On His Way
TTITLE2=Bob Wills and His Texas Playboys - When It's Christmas On The Range
TTITLE3=George Jones - Maybe Next Christmas
TTITLE4=Leon Payne - Christmas Every Day
TTITLE5=The Statler Brothers - Something You Can't Buy
TTITLE6=George Jones - Family Bible
TTITLE7=Faron Young - If We Make It Through December
TTITLE8=The Stonemans - Blue Christmas
TTITLE9=Jerry Lee Lewis - I Can't Have A Merry Christmas, Mary, Without You
TTITLE10=George Jones - New Baby For Christmas
TTITLE11=Charlie Rich - Santa Claus's Daughter
TTITLE12=Dave Dudley - Six Tone Of Toys
TTITLE13=Roger Miller - Old Toy Trains
TTITLE14=Dave Dudley - Old Time Merry Christmas
TTITLE15=Thumbs Carillile - Greensleeves
TTITLE16=Roger Miller - Silent Night
EXTD=
EXTT0=
EXTT1=
EXTT2=
EXTT3=
EXTT4=
EXTT5=
EXTT6=
EXTT7=
EXTT8=
EXTT9=
EXTT10=
EXTT11=
EXTT12=
EXTT13=
EXTT14=
EXTT15=
EXTT16=
PLAYORDER=
